<?xml version="1.0" standalone="no"?>
<!DOCTYPE svg PUBLIC "-//W3C//DTD SVG 20010904//EN"
 "http://www.w3.org/TR/2001/REC-SVG-20010904/DTD/svg10.dtd">
<svg version="1.0" xmlns="http://www.w3.org/2000/svg"
 width="856.000000pt" height="856.000000pt" viewBox="0 0 856.000000 856.000000"
 preserveAspectRatio="xMidYMid meet">
<metadata>
Created by potrace 1.14, written by Peter Selinger 2001-2017
</metadata>
<g transform="translate(0.000000,856.000000) scale(0.100000,-0.100000)"
fill="#000000" stroke="none">
<path d="M4080 5844 c0 -7 -24 -10 -67 -9 -38 1 -76 -2 -85 -7 -13 -6 -18 -5
-18 4 0 9 -3 10 -8 2 -4 -6 -15 -10 -24 -8 -10 1 -18 -3 -18 -9 0 -7 -5 -5
-10 3 -6 9 -10 10 -10 3 0 -6 -9 -10 -20 -8 -11 2 -20 0 -20 -5 0 -5 -7 -6
-17 -3 -12 5 -14 3 -8 -8 7 -11 6 -12 -6 -2 -12 10 -17 8 -27 -8 -7 -10 -17
-19 -24 -19 -7 0 -3 7 8 15 23 17 14 19 -20 4 -14 -7 -24 -15 -22 -18 2 -3 -6
-7 -17 -7 -12 -1 -60 -4 -107 -7 -116 -7 -210 -28 -310 -69 -19 -8 -56 -14
-82 -14 -27 1 -48 -3 -48 -9 0 -5 -5 -3 -10 5 -5 8 -10 10 -10 4 0 -5 -14 -9
-31 -8 -22 2 -29 -2 -25 -12 3 -7 1 -16 -5 -19 -5 -4 -8 -1 -7 5 2 7 -5 14
-14 15 -10 2 -18 -1 -18 -6 0 -4 -7 -5 -17 -2 -10 4 -14 2 -10 -4 5 -7 -1 -9
-15 -5 -16 4 -19 2 -13 -9 8 -12 6 -12 -8 0 -11 9 -17 10 -17 2 0 -6 -3 -10
-7 -9 -19 4 -62 -15 -56 -25 3 -5 1 -7 -4 -4 -13 8 -73 -20 -73 -34 0 -5 -3
-8 -7 -7 -15 3 -63 -22 -63 -32 0 -5 -7 -10 -16 -10 -8 0 -12 -4 -9 -10 3 -5
1 -10 -6 -10 -24 0 -205 -203 -203 -227 1 -7 -3 -11 -10 -10 -6 1 -10 -4 -8
-10 1 -7 -2 -13 -8 -13 -5 0 -7 -14 -5 -30 2 -17 0 -28 -5 -25 -5 3 -7 12 -3
20 3 8 0 15 -6 15 -10 0 -15 -14 -12 -32 0 -5 -3 -8 -9 -8 -5 0 -10 -6 -10
-14 0 -8 -7 -16 -15 -20 -8 -3 -15 -13 -15 -22 0 -9 -9 -29 -21 -45 -11 -16
-18 -33 -15 -38 3 -5 0 -11 -8 -14 -8 -3 -13 -16 -12 -31 2 -14 0 -23 -5 -21
-4 3 -12 -9 -18 -27 -12 -36 -11 -55 2 -50 5 1 6 -2 2 -8 -3 -6 -11 -8 -16 -5
-5 4 -9 1 -9 -4 0 -17 4 -26 11 -24 3 1 6 -5 6 -13 0 -10 -4 -11 -11 -4 -21
21 -24 14 -39 -70 -2 -9 -6 -21 -11 -28 -4 -6 -5 -16 -1 -21 3 -5 0 -13 -6
-16 -6 -4 -9 -27 -8 -51 2 -24 0 -46 -3 -49 -3 -3 -2 -22 2 -41 4 -19 4 -36 0
-39 -4 -3 -4 -20 0 -39 4 -19 5 -37 3 -40 -6 -6 -7 -115 -1 -121 2 -2 1 -28
-2 -57 -3 -29 -3 -86 0 -126 3 -39 3 -72 0 -72 -3 0 -4 -51 -3 -112 1 -62 2
-135 3 -161 0 -27 4 -46 9 -43 11 7 9 -13 -2 -31 -5 -8 -3 -13 3 -13 7 0 10
-7 6 -15 -3 -10 1 -15 12 -15 14 0 14 -2 3 -9 -12 -8 -12 -13 3 -36 10 -15 13
-24 7 -21 -6 4 -11 2 -11 -3 0 -6 8 -11 18 -12 10 0 12 -3 5 -6 -10 -3 -10
-12 1 -38 8 -18 12 -36 8 -39 -3 -3 1 -6 8 -6 7 0 11 -3 7 -6 -7 -8 13 -64 24
-64 4 0 5 -8 2 -17 -5 -13 -2 -15 12 -10 13 6 15 4 8 -5 -11 -15 39 -122 52
-110 5 4 5 -1 2 -11 -4 -11 -1 -20 8 -23 8 -4 12 -10 9 -15 -3 -5 3 -9 13 -9
15 0 16 -2 3 -10 -8 -5 -10 -10 -4 -10 7 0 14 -10 17 -21 4 -16 11 -20 24 -15
14 6 15 5 6 -5 -10 -10 -9 -16 5 -28 9 -9 22 -25 29 -36 6 -11 16 -19 23 -17
6 1 9 -2 6 -7 -4 -5 4 -20 17 -33 13 -13 26 -31 30 -42 4 -11 13 -16 23 -12 8
3 12 2 9 -4 -3 -6 1 -13 9 -16 9 -3 16 -12 16 -20 0 -13 13 -19 34 -15 5 1 6
-5 3 -14 -8 -18 19 -21 27 -2 3 6 3 2 0 -10 -4 -17 -1 -23 11 -23 11 0 15 5
11 16 -3 9 -2 12 5 9 6 -4 8 -13 6 -20 -3 -6 3 -19 14 -28 10 -9 19 -14 19
-10 0 4 7 -2 16 -13 8 -10 13 -12 9 -4 -5 12 -4 12 7 -1 7 -9 24 -20 38 -24
14 -4 30 -11 36 -16 6 -5 19 -10 30 -12 19 -4 51 -16 68 -25 5 -3 6 1 1 9 -7
11 -6 11 9 -1 23 -19 47 -22 64 -8 10 9 12 8 10 -1 -4 -17 18 -21 135 -25 67
-3 97 0 97 8 0 6 4 5 9 -3 6 -9 11 -10 15 -2 4 6 13 11 19 11 7 0 6 -4 -3 -10
-13 -8 -12 -10 3 -10 9 0 17 6 17 13 0 7 3 8 8 2 10 -14 92 -16 92 -2 0 8 4 7
9 -2 6 -9 11 -10 15 -2 4 6 13 11 19 11 7 0 6 -4 -3 -10 -13 -8 -12 -10 3 -10
9 0 17 6 17 13 0 8 3 8 8 1 9 -14 92 -14 92 0 0 6 4 5 9 -3 6 -9 11 -10 15 -2
4 6 13 11 19 11 7 0 6 -4 -3 -10 -13 -8 -12 -10 3 -10 9 0 17 6 17 13 0 8 3 8
8 1 9 -14 92 -14 92 0 0 6 4 5 9 -3 6 -9 11 -10 15 -2 4 6 13 11 19 11 7 0 6
-4 -3 -10 -13 -8 -12 -10 3 -10 9 0 17 6 17 13 0 8 3 8 8 2 8 -12 91 -14 110
-2 7 5 12 3 12 -4 0 -8 5 -7 17 2 11 10 14 10 9 2 -4 -7 -3 -13 3 -13 5 0 13
5 16 10 5 8 11 7 21 -1 11 -9 18 -9 26 -1 7 7 17 12 23 12 5 0 3 -5 -5 -10
-21 -13 5 -13 30 0 13 7 21 7 25 0 3 -5 13 -10 22 -10 13 0 13 3 2 18 -13 16
-13 16 7 0 16 -14 23 -15 32 -6 9 9 12 9 12 -1 0 -11 3 -11 17 0 11 10 14 10
9 2 -4 -7 -3 -13 3 -13 5 0 13 5 16 10 5 8 11 7 21 -1 11 -9 18 -9 26 -1 7 7
17 12 23 12 5 0 3 -5 -5 -10 -21 -13 5 -13 30 0 13 7 21 7 25 0 3 -5 13 -10
22 -10 13 0 14 2 2 18 -12 15 -12 16 2 5 9 -7 20 -9 24 -5 5 4 5 1 1 -5 -10
-18 4 -16 26 4 15 13 19 14 16 3 -2 -10 8 -15 35 -17 33 -2 38 0 33 15 -6 16
-5 16 7 0 11 -14 16 -15 27 -5 10 9 11 9 6 0 -9 -16 6 -17 22 -1 9 9 12 9 12
-1 0 -11 3 -11 17 0 11 10 14 10 9 2 -4 -7 -3 -13 3 -13 5 0 13 5 16 10 5 8
11 7 21 -1 11 -9 18 -9 26 -1 7 7 17 12 23 12 5 0 3 -5 -5 -10 -21 -13 5 -13
30 0 13 7 21 7 25 0 3 -5 13 -10 22 -10 13 0 13 3 2 18 -13 16 -13 16 7 0 16
-14 23 -15 32 -6 9 9 12 9 12 -1 0 -11 3 -11 17 0 11 10 14 10 9 2 -4 -7 -3
-13 3 -13 5 0 13 5 16 10 5 8 11 7 21 -1 11 -9 18 -9 26 -1 7 7 17 12 23 12 5
0 3 -5 -5 -10 -21 -13 5 -13 30 0 13 7 21 7 25 0 3 -5 13 -10 22 -10 13 0 14
2 2 18 -12 15 -12 16 2 5 9 -7 20 -9 24 -5 5 4 5 1 1 -5 -10 -18 4 -16 26 4
15 14 19 14 16 3 -2 -12 10 -15 57 -16 33 0 66 4 73 9 8 6 12 5 12 -3 0 -9 4
-9 17 1 11 10 14 10 9 2 -9 -16 6 -17 21 -2 6 6 13 7 17 1 3 -6 24 -5 56 1 39
7 50 13 45 25 -4 12 -3 13 10 2 11 -9 15 -9 15 -1 0 7 4 10 9 7 4 -3 17 2 27
10 10 9 12 12 4 8 -8 -4 -12 -3 -7 1 10 11 27 13 168 15 124 2 191 18 247 60
17 13 47 24 66 24 20 1 38 5 42 8 3 4 15 1 26 -5 16 -9 22 -9 25 1 3 6 9 12
14 12 6 0 7 -4 4 -10 -10 -16 6 -12 29 8 20 16 20 16 7 -1 -12 -16 -12 -18 0
-15 8 2 17 8 21 13 5 6 8 5 8 -4 0 -9 4 -10 13 -4 6 5 22 8 35 7 12 0 22 3 22
9 0 6 3 8 6 4 10 -10 78 31 125 74 24 23 37 38 29 33 -10 -5 -8 0 4 15 21 23
29 61 14 61 -5 0 -6 5 -2 11 9 16 11 150 1 156 -4 2 -4 9 -1 15 11 17 10 68 0
68 -5 0 -3 6 3 14 8 10 9 16 1 21 -6 3 -7 11 -3 18 9 15 10 98 0 104 -4 2 -4
10 0 16 11 17 9 61 -2 70 -7 5 -7 10 0 15 11 8 13 121 2 138 -3 6 -4 14 0 18
10 9 9 66 -1 66 -5 0 -3 6 3 14 8 10 9 16 1 21 -6 3 -7 11 -4 17 9 15 9 122 0
137 -4 6 -3 11 2 11 5 0 9 7 9 15 0 8 -5 15 -11 15 -6 0 -6 4 1 11 8 8 8 20 3
35 -5 13 -6 25 -2 28 9 5 8 78 -1 93 -4 6 -4 13 0 17 10 9 9 66 -1 66 -5 0 -3
6 3 14 8 10 9 16 1 21 -6 3 -7 11 -4 17 9 15 9 122 0 137 -4 6 -3 11 2 11 5 0
9 7 9 15 0 8 -4 15 -8 15 -5 0 -6 7 -3 15 4 8 1 15 -5 15 -6 0 -10 5 -9 12 2
7 -8 12 -23 12 -16 -1 -26 4 -26 13 0 9 4 10 11 3 13 -13 26 -13 26 0 0 6 -8
14 -17 17 -10 4 -24 13 -31 20 -8 7 -18 11 -23 7 -5 -3 -8 -2 -7 3 2 4 -1 9
-6 10 -5 1 -12 6 -15 12 -4 5 -33 17 -66 26 -46 12 -61 12 -67 2 -5 -7 -8 -8
-8 -1 0 6 -12 10 -27 9 -16 -1 -36 2 -45 7 -9 4 -19 4 -22 -1 -3 -5 -22 -8
-41 -6 -24 1 -39 -3 -46 -14 -8 -12 -8 -11 -3 8 5 18 3 22 -7 15 -8 -5 -27 -9
-44 -9 -18 -1 -29 -6 -27 -13 1 -7 -3 -12 -9 -12 -6 0 -9 7 -6 15 7 16 -9 30
-17 16 -7 -11 -65 -9 -83 2 -6 4 -14 3 -17 -1 -6 -11 -56 -10 -73 1 -6 4 -15
2 -19 -4 -5 -8 -3 -9 7 -4 11 7 12 6 2 -7 -7 -8 -11 -18 -8 -21 3 -4 2 -4 -2
-1 -5 3 -8 10 -8 16 0 6 -8 12 -18 14 -12 1 -17 -2 -14 -10 3 -7 -1 -13 -8
-13 -7 0 -11 6 -8 12 5 14 -24 29 -31 16 -7 -10 -67 -8 -85 3 -9 6 -12 5 -8
-1 9 -14 -85 -12 -96 2 -5 6 -7 1 -4 -11 2 -12 -1 -21 -8 -21 -7 0 -11 6 -8
14 3 7 0 13 -6 13 -6 0 -11 -6 -11 -12 0 -9 -3 -9 -8 -3 -4 6 -14 10 -22 10
-8 -1 -20 3 -27 7 -6 5 -14 5 -17 0 -6 -11 -56 -10 -73 1 -6 4 -15 2 -19 -4
-5 -8 -3 -9 7 -4 11 7 12 6 2 -7 -7 -8 -9 -19 -5 -24 4 -5 3 -5 -3 -1 -5 5
-10 13 -10 19 0 6 -8 12 -18 14 -12 1 -17 -2 -14 -10 3 -7 -1 -13 -8 -13 -7 0
-11 6 -8 12 5 14 -24 29 -31 16 -7 -10 -67 -8 -85 3 -9 6 -12 5 -8 -1 9 -14
-85 -12 -96 2 -5 6 -7 1 -4 -11 2 -12 -1 -21 -8 -21 -7 0 -11 6 -8 14 3 7 0
13 -6 13 -6 0 -11 -6 -11 -12 0 -9 -3 -9 -8 -3 -4 6 -14 10 -22 10 -8 -1 -20
3 -27 7 -6 5 -14 5 -17 0 -6 -11 -56 -10 -73 1 -6 4 -15 2 -19 -4 -5 -8 -3 -9
7 -4 11 7 12 6 2 -7 -7 -8 -11 -18 -8 -21 3 -4 2 -4 -2 -1 -5 3 -8 10 -8 16 0
6 -8 12 -18 14 -12 1 -17 -2 -14 -10 3 -7 -1 -13 -8 -13 -7 0 -10 9 -8 21 4
21 4 21 -11 2 -9 -11 -16 -15 -16 -9 0 6 -13 9 -30 8 -17 -1 -30 2 -30 9 0 7
-3 8 -8 0 -8 -11 -56 -13 -67 -2 -4 4 -15 3 -25 -2 -10 -5 -20 -6 -24 -3 -3 4
-13 -2 -21 -13 -13 -16 -14 -16 -9 -1 3 9 3 17 -1 17 -4 0 -14 -8 -22 -17 -14
-17 -14 -17 -9 0 5 17 -5 23 -18 10 -4 -5 -12 -9 -17 -9 -5 -1 -10 -2 -11 -4
-2 -1 -12 -3 -22 -5 -10 -2 -23 -10 -27 -17 -5 -7 -9 -9 -9 -5 0 5 -15 -1 -33
-12 -24 -15 -50 -20 -97 -20 -190 0 -223 -7 -314 -65 -32 -20 -55 -32 -51 -26
3 5 1 10 -4 10 -6 0 -11 -6 -11 -12 0 -7 -6 -4 -12 6 -10 18 -11 18 -25 -5 -8
-13 -12 -16 -9 -6 3 10 0 17 -9 17 -8 0 -19 -8 -25 -17 -11 -17 -11 -17 -6 1
4 12 2 17 -7 13 -17 -6 -21 35 -4 45 9 6 8 8 -2 8 -11 0 -11 3 0 17 12 14 12
16 -1 9 -12 -6 -11 -4 1 6 9 7 14 19 11 26 -2 7 1 19 8 27 6 8 9 19 5 25 -3 5
-1 10 4 10 6 0 11 5 11 10 0 6 9 30 20 52 23 48 26 73 8 62 -8 -4 -9 -3 -5 2
5 5 16 9 25 9 10 0 18 9 20 23 2 12 8 22 14 22 6 0 9 3 5 6 -3 3 3 14 14 25
11 11 17 25 13 31 -5 8 -1 9 10 5 14 -6 17 -3 12 8 -3 9 -2 13 4 10 6 -3 10
-1 10 4 0 6 16 11 36 11 25 0 33 3 28 13 -6 9 -4 9 7 1 20 -17 362 -17 352 -1
-5 9 -3 9 8 1 9 -8 71 -12 185 -12 94 1 176 -2 182 -6 6 -3 13 -2 17 4 3 5 1
10 -6 10 -7 0 -9 3 -6 6 4 4 13 1 22 -6 9 -7 18 -10 22 -7 3 4 14 2 24 -3 12
-7 20 -7 24 0 3 5 1 10 -6 10 -7 0 -9 3 -6 6 4 4 13 1 22 -6 12 -10 18 -10 32
1 10 8 14 9 10 2 -4 -6 -3 -14 3 -18 5 -3 10 -3 10 2 0 4 123 7 274 7 303 -2
327 0 320 25 -4 12 -3 12 6 -2 11 -18 12 -18 27 0 8 10 12 12 8 6 -4 -9 -1
-11 9 -7 9 3 16 10 16 16 0 5 4 7 9 3 5 -3 17 3 27 12 14 14 37 18 120 19 57
1 125 5 151 9 50 7 126 38 156 63 11 10 34 15 63 13 32 -1 44 1 39 9 -5 8 0 7
13 -1 21 -13 57 -5 47 10 -3 5 -1 12 4 16 6 3 8 -3 6 -15 -5 -24 12 -26 83 -9
93 21 202 92 202 131 0 9 7 19 16 22 9 4 14 9 11 12 -3 3 -2 18 3 34 5 18 4
32 -3 39 -7 7 -7 11 -1 11 11 0 12 60 1 77 -4 6 -3 13 0 17 11 11 9 60 -2 69
-6 4 -5 10 4 16 9 6 10 11 2 15 -6 4 -9 11 -6 16 3 5 -1 15 -9 23 -8 8 -12 17
-9 21 4 3 1 6 -5 6 -5 0 -13 -6 -16 -12 -3 -7 -3 -3 0 10 3 12 1 22 -4 22 -5
0 -12 10 -15 22 -5 17 -9 19 -21 9 -12 -10 -14 -9 -9 8 5 20 -9 27 -40 22 -4
0 -6 2 -6 6 4 22 -3 25 -16 7 -14 -18 -14 -18 -9 2 3 12 0 25 -7 29 -8 6 -10
4 -4 -6 7 -11 6 -12 -6 -3 -22 18 -91 35 -82 21 4 -7 -1 -6 -10 2 -11 9 -17
10 -17 2 0 -6 -5 -11 -11 -11 -5 0 -7 5 -4 10 11 18 -14 11 -25 -7 -11 -17
-11 -17 -6 0 4 12 2 17 -6 15 -7 -3 -13 -10 -13 -16 0 -5 -3 -14 -7 -18 -4 -3
-6 3 -3 15 4 24 -5 27 -24 9 -9 -8 -11 -8 -8 -2 9 15 -16 25 -34 14 -8 -5 -19
-4 -26 2 -8 6 -13 6 -13 1 0 -5 -35 -9 -80 -8 -44 1 -80 -2 -80 -7 0 -4 -5 -8
-11 -8 -5 0 -7 5 -4 10 3 6 2 10 -4 10 -5 0 -12 -6 -14 -12 -4 -10 -6 -10 -6
-1 -1 8 -14 10 -42 7 -31 -4 -39 -2 -34 8 4 7 -4 2 -16 -12 -15 -17 -20 -19
-16 -7 4 9 2 17 -3 17 -6 0 -10 -4 -10 -10 0 -5 -5 -10 -11 -10 -5 0 -7 5 -4
10 10 16 -6 12 -29 -7 -15 -14 -18 -14 -8 -2 10 14 6 16 -36 14 -26 -2 -53 2
-59 7 -8 6 -13 6 -13 1 0 -5 6 -15 13 -23 10 -12 9 -12 -6 0 -20 15 -187 22
-187 8 0 -5 -5 -8 -11 -8 -5 0 -7 5 -4 10 11 18 -14 11 -25 -7 -11 -17 -11
-17 -6 0 3 9 1 17 -4 17 -6 0 -10 -4 -10 -10 0 -5 -5 -10 -11 -10 -5 0 -7 5
-4 10 6 10 -10 15 -30 10 -27 -8 -126 -7 -131 1 -3 5 -13 5 -23 -1 -12 -6 -22
-5 -29 2 -16 16 -15 -4 1 -22 10 -12 9 -12 -6 0 -20 15 -167 21 -167 8 0 -5
-5 -8 -11 -8 -5 0 -7 5 -4 10 10 16 -6 12 -29 -7 -20 -17 -20 -17 -6 1 14 18
13 19 -4 13 -10 -4 -25 -2 -34 5 -13 11 -14 11 -7 -1 6 -11 3 -13 -13 -9 -14
4 -26 0 -33 -10 -10 -15 -10 -15 -5 1 3 9 1 17 -4 17 -6 0 -10 -4 -10 -10 0
-5 -5 -10 -11 -10 -5 0 -7 5 -4 10 10 16 -6 12 -29 -7 -15 -14 -18 -14 -8 -2
10 14 6 16 -36 14 -26 -2 -53 2 -59 7 -8 6 -13 6 -13 1 0 -5 6 -15 13 -23 10
-12 9 -12 -6 0 -20 15 -187 22 -187 8 0 -5 -5 -8 -11 -8 -5 0 -7 5 -4 10 11
18 -14 11 -25 -7 -11 -17 -11 -17 -6 0 3 9 1 17 -4 17 -6 0 -10 -4 -10 -10 0
-5 -5 -10 -11 -10 -5 0 -8 4 -5 9 3 5 -1 11 -9 15 -8 3 -17 0 -21 -6 -5 -7 -2
-8 6 -3 9 5 11 4 6 -4 -5 -7 -12 -9 -19 -3 -7 4 -23 7 -37 6 -14 -1 -28 3 -32
10 -6 8 -8 8 -8 0z m910 -14 c0 -5 -5 -10 -11 -10 -5 0 -7 5 -4 10 3 6 8 10
11 10 2 0 4 -4 4 -10z m960 0 c0 -5 -5 -10 -11 -10 -5 0 -7 5 -4 10 3 6 8 10
11 10 2 0 4 -4 4 -10z m-104 -26 c1 -9 0 -13 -4 -10 -3 4 -7 14 -8 22 -1 9 0
13 4 10 3 -4 7 -14 8 -22z m-1778 -9 c-3 -3 -9 2 -12 12 -6 14 -5 15 5 6 7 -7
10 -15 7 -18z m378 -1 c1 -9 0 -13 -4 -10 -3 4 -7 14 -8 22 -1 9 0 13 4 10 3
-4 7 -14 8 -22z m480 0 c1 -9 0 -13 -4 -10 -3 4 -7 14 -8 22 -1 9 0 13 4 10 3
-4 7 -14 8 -22z m480 0 c1 -9 0 -13 -4 -10 -3 4 -7 14 -8 22 -1 9 0 13 4 10 3
-4 7 -14 8 -22z m479 17 c3 -5 2 -12 -3 -15 -5 -3 -9 1 -9 9 0 17 3 19 12 6z
m-1781 -9 c3 -5 -1 -9 -9 -9 -8 0 -12 4 -9 9 3 4 7 8 9 8 2 0 6 -4 9 -8z m162
-4 c4 -7 4 -10 -1 -6 -4 4 -15 2 -24 -5 -14 -11 -14 -10 -2 6 16 20 18 21 27
5z m718 4 c3 -5 -1 -9 -9 -9 -8 0 -12 4 -9 9 3 4 7 8 9 8 2 0 6 -4 9 -8z m242
-4 c4 -7 4 -10 -1 -6 -4 4 -15 2 -24 -5 -14 -11 -14 -10 -2 6 16 20 18 21 27
5z m718 4 c3 -5 -1 -9 -9 -9 -8 0 -12 4 -9 9 3 4 7 8 9 8 2 0 6 -4 9 -8z
m-1617 -17 c0 -8 -4 -12 -9 -9 -5 3 -6 10 -3 15 9 13 12 11 12 -6z m480 0 c0
-8 -4 -12 -9 -9 -5 3 -6 10 -3 15 9 13 12 11 12 -6z m480 0 c0 -8 -4 -12 -9
-9 -5 3 -6 10 -3 15 9 13 12 11 12 -6z m500 -20 c0 -8 -4 -15 -9 -15 -10 0
-11 14 -1 23 9 10 10 9 10 -8z m463 -21 c0 -8 -19 -13 -24 -6 -3 5 1 9 9 9 8
0 15 -2 15 -3z m-63 -29 c0 -8 -4 -12 -9 -9 -4 3 -8 9 -8 15 0 5 4 9 8 9 5 0
9 -7 9 -15z m-292 -15 c-3 -5 -12 -10 -18 -10 -7 0 -6 4 3 10 19 12 23 12 15
0z m31 -5 c-1 -8 -5 -17 -8 -21 -5 -4 -4 16 1 34 3 9 9 -1 7 -13z m328 3 c-3
-4 -9 -8 -15 -8 -5 0 -9 4 -9 8 0 5 7 9 15 9 8 0 12 -4 9 -9z m-294 -12 c0 -2
-8 -10 -17 -17 -16 -13 -17 -12 -4 4 13 16 21 21 21 13z m54 -4 c3 -5 -1 -9
-9 -9 -8 0 -12 4 -9 9 3 4 7 8 9 8 2 0 6 -4 9 -8z m13 -37 c0 -8 -4 -15 -9
-15 -10 0 -11 14 -1 23 9 10 10 9 10 -8z m-57 -1 c0 -8 -19 -13 -24 -6 -3 5 1
9 9 9 8 0 15 -2 15 -3z m132 -5 c2 -2 1 -3 -1 -2 -2 2 -9 -2 -16 -7 -8 -7 -12
-5 -12 4 0 12 22 16 29 5z m-3052 -23 c0 -2 -6 -9 -14 -15 -11 -9 -16 -9 -22
0 -4 7 -3 9 4 5 6 -3 13 -2 17 4 6 10 15 14 15 6z m-96 -14 c3 -5 -1 -9 -9 -9
-8 0 -12 4 -9 9 3 4 7 8 9 8 2 0 6 -4 9 -8z m3056 -2 c0 -5 -5 -10 -11 -10 -5
0 -7 5 -4 10 3 6 8 10 11 10 2 0 4 -4 4 -10z m330 4 c0 -8 -19 -13 -24 -6 -3
5 1 9 9 9 8 0 15 -2 15 -3z m-314 -36 c5 4 5 3 1 -2 -12 -15 -34 -15 -34 0 0
9 4 11 12 4 7 -5 16 -6 21 -2z m81 -13 c0 -8 -4 -12 -9 -9 -4 3 -8 9 -8 15 0
5 4 9 8 9 5 0 9 -7 9 -15z m237 -1 c3 -8 2 -12 -4 -9 -6 3 -10 10 -10 16 0 14
7 11 14 -7z m-170 -16 c-3 -4 -9 -8 -15 -8 -5 0 -9 4 -9 8 0 5 7 9 15 9 8 0
12 -4 9 -9z m34 0 c-2 -7 5 -12 16 -11 13 1 15 -2 7 -10 -12 -12 -44 9 -35 24
8 13 14 11 12 -3z m-185 -13 c-3 -9 -8 -14 -10 -11 -3 3 -2 9 2 15 9 16 15 13
8 -4z m-3069 -3 c3 -5 -1 -9 -9 -9 -8 0 -12 4 -9 9 3 4 7 8 9 8 2 0 6 -4 9 -8z
m3150 0 c3 -5 -1 -9 -9 -9 -8 0 -12 4 -9 9 3 4 7 8 9 8 2 0 6 -4 9 -8z m187
-5 c-6 -8 -7 -18 -3 -22 4 -5 1 -5 -6 -1 -10 6 -10 11 -1 22 6 8 14 14 16 14
3 0 0 -6 -6 -13z m-3331 -33 c0 -8 -19 -13 -24 -6 -3 5 1 9 9 9 8 0 15 -2 15
-3z m3254 -26 c-3 -4 -9 -8 -15 -8 -5 0 -9 4 -9 8 0 5 7 9 15 9 8 0 12 -4 9
-9z m-49 -7 c3 -5 2 -12 -3 -15 -5 -3 -9 1 -9 9 0 17 3 19 12 6z m-3479 -27
c1 -9 0 -13 -4 -10 -3 4 -7 14 -8 22 -1 9 0 13 4 10 3 -4 7 -14 8 -22z m39 8
c-3 -3 -11 0 -18 7 -9 10 -8 11 6 5 10 -3 15 -9 12 -12z m97 7 c2 -2 1 -3 -1
-2 -2 2 -9 -2 -16 -7 -8 -7 -12 -5 -12 4 0 12 22 16 29 5z m-48 -17 c3 -5 -1
-9 -9 -9 -8 0 -15 4 -15 9 0 4 4 8 9 8 6 0 12 -4 15 -8z m136 4 c0 -3 -4 -8
-10 -11 -5 -3 -10 -1 -10 4 0 6 5 11 10 11 6 0 10 -2 10 -4z m-85 -25 c-9 -8
-36 -10 -30 -2 2 4 11 8 20 8 8 0 13 -3 10 -6z m-77 -46 c-3 -3 -9 2 -12 12
-6 14 -5 15 5 6 7 -7 10 -15 7 -18z m3455 10 c-3 -9 -8 -14 -10 -11 -3 3 -2 9
2 15 9 16 15 13 8 -4z m-3404 -9 c8 -10 9 -16 1 -21 -6 -4 -9 -1 -8 7 2 7 -5
12 -14 12 -10 -1 -15 2 -12 7 8 13 20 11 33 -5z m51 -10 c0 -2 -7 -7 -16 -10
-8 -3 -12 -2 -9 4 6 10 25 14 25 6z m3277 -21 c0 -8 -4 -12 -9 -9 -5 3 -6 10
-3 15 9 13 12 11 12 -6z m139 3 c5 4 5 3 1 -2 -12 -15 -34 -15 -34 0 0 9 4 11
12 4 7 -5 16 -6 21 -2z m-3712 -6 c3 -5 -1 -9 -9 -9 -8 0 -12 4 -9 9 3 4 7 8
9 8 2 0 6 -4 9 -8z m3471 -1 c-9 -8 -36 -10 -30 -2 2 4 11 8 20 8 8 0 13 -3
10 -6z m162 -6 c0 -8 -4 -12 -9 -9 -4 3 -8 9 -8 15 0 5 4 9 8 9 5 0 9 -7 9
-15z m-3607 -9 c0 -2 -8 -10 -17 -17 -16 -13 -17 -12 -4 4 13 16 21 21 21 13z
m26 -11 c-1 -8 -5 -17 -8 -21 -5 -4 -4 16 1 34 3 9 9 -1 7 -13z m3417 -10 c-3
-9 -8 -14 -10 -11 -3 3 -2 9 2 15 9 16 15 13 8 -4z m243 -5 c0 -12 -4 -16 -9
-11 -5 5 -6 14 -3 20 10 15 12 14 12 -9z m-3622 2 c3 -5 -1 -9 -9 -9 -8 0 -12
4 -9 9 3 4 7 8 9 8 2 0 6 -4 9 -8z m3561 -11 c3 -5 2 -12 -3 -15 -5 -3 -9 1
-9 9 0 17 3 19 12 6z m-3575 -32 c0 -5 -4 -9 -8 -9 -5 0 -9 7 -9 15 0 8 4 12
9 9 4 -3 8 -9 8 -15z m3335 -27 c-3 -3 -11 0 -18 7 -9 10 -8 11 6 5 10 -3 15
-9 12 -12z m-3480 -32 c2 -12 1 -20 -2 -16 -4 4 -8 16 -10 28 -4 28 6 18 12
-12z m80 21 c3 -5 2 -12 -3 -15 -5 -3 -9 1 -9 9 0 17 3 19 12 6z m3455 3 c0
-8 -19 -13 -24 -6 -3 5 1 9 9 9 8 0 15 -2 15 -3z m-3485 -24 c3 -6 -1 -7 -9
-4 -18 7 -21 14 -7 14 6 0 13 -4 16 -10z m128 -13 c4 3 7 4 7 0 0 -17 -20 -14
-36 6 -19 22 -19 22 2 4 11 -9 24 -14 27 -10z m-56 -2 c0 -8 -4 -12 -9 -9 -5
3 -6 10 -3 15 9 13 12 11 12 -6z m-83 -3 c3 -5 -1 -9 -9 -9 -8 0 -12 4 -9 9 3
4 7 8 9 8 2 0 6 -4 9 -8z m60 -8 c3 -8 2 -12 -4 -9 -6 3 -10 10 -10 16 0 14 7
11 14 -7z m86 -18 c0 -2 -8 -10 -17 -17 -16 -13 -17 -12 -4 4 13 16 21 21 21
13z m-120 -15 c0 -6 -4 -12 -8 -15 -5 -3 -9 1 -9 9 0 8 4 15 9 15 4 0 8 -4 8
-9z m34 1 c3 -5 -1 -9 -9 -9 -8 0 -12 4 -9 9 3 4 7 8 9 8 2 0 6 -4 9 -8z m101
-11 c3 -5 2 -12 -3 -15 -5 -3 -9 1 -9 9 0 17 3 19 12 6z m-280 -30 c-9 -8 -36
-10 -30 -2 2 4 11 8 20 8 8 0 13 -3 10 -6z m81 -6 c-1 -8 -5 -17 -8 -21 -5 -4
-4 16 1 34 3 9 9 -1 7 -13z m81 -2 c0 -8 -4 -10 -12 -3 -7 5 -16 6 -20 2 -5
-4 -5 -2 -2 4 9 15 34 13 34 -3z m-160 -26 c0 -8 -6 -14 -14 -14 -9 0 -10 4
-2 14 6 7 12 13 14 13 1 0 2 -6 2 -13z m158 -6 c3 -5 2 -12 -3 -15 -5 -3 -9 1
-9 9 0 17 3 19 12 6z m1425 3 c0 -8 -19 -13 -24 -6 -3 5 1 9 9 9 8 0 15 -2 15
-3z m174 -10 c3 -8 2 -12 -4 -9 -6 3 -10 10 -10 16 0 14 7 11 14 -7z m336 10
c0 -8 -19 -13 -24 -6 -3 5 1 9 9 9 8 0 15 -2 15 -3z m480 0 c0 -8 -19 -13 -24
-6 -3 5 1 9 9 9 8 0 15 -2 15 -3z m240 0 c0 -8 -19 -13 -24 -6 -3 5 1 9 9 9 8
0 15 -2 15 -3z m-2734 -29 c-1 -8 -5 -17 -8 -21 -5 -4 -4 16 1 34 3 9 9 -1 7
-13z m-145 -22 c13 -16 12 -17 -3 -4 -10 7 -18 15 -18 17 0 8 8 3 21 -13z m89
11 c0 -8 -19 -13 -24 -6 -3 5 1 9 9 9 8 0 15 -2 15 -3z m1100 -8 c0 -2 -8 -10
-17 -17 -16 -13 -17 -12 -4 4 13 16 21 21 21 13z m205 -16 c-3 -5 -12 -10 -18
-10 -7 0 -6 4 3 10 19 12 23 12 15 0z m-1308 -15 c0 -8 -4 -15 -9 -15 -10 0
-11 14 -1 23 9 10 10 9 10 -8z m220 -20 c0 -8 -4 -12 -9 -9 -5 3 -6 10 -3 15
9 13 12 11 12 -6z m893 -1 c0 -8 -19 -13 -24 -6 -3 5 1 9 9 9 8 0 15 -2 15 -3z
m-1135 -13 c3 -5 2 -12 -3 -15 -5 -3 -9 1 -9 9 0 17 3 19 12 6z m1160 0 c3 -5
2 -12 -3 -15 -5 -3 -9 1 -9 9 0 17 3 19 12 6z m-1105 -7 c0 -8 -19 -13 -24 -6
-3 5 1 9 9 9 8 0 15 -2 15 -3z m1010 0 c0 -8 -19 -13 -24 -6 -3 5 1 9 9 9 8 0
15 -2 15 -3z m58 -29 c-3 -3 -9 2 -12 12 -6 14 -5 15 5 6 7 -7 10 -15 7 -18z
m-1083 -3 c-3 -3 -11 0 -18 7 -9 10 -8 11 6 5 10 -3 15 -9 12 -12z m-42 -7
c-3 -9 -8 -14 -10 -11 -3 3 -2 9 2 15 9 16 15 13 8 -4z m1060 0 c-3 -9 -8 -14
-10 -11 -3 3 -2 9 2 15 9 16 15 13 8 -4z m-962 -12 c12 -16 12 -17 -2 -5 -9 7
-25 10 -35 6 -16 -5 -16 -4 -4 5 20 15 25 14 41 -6z m1109 7 c0 -5 -5 -10 -11
-10 -5 0 -7 5 -4 10 3 6 8 10 11 10 2 0 4 -4 4 -10z m29 -4 c9 -11 9 -16 -1
-22 -7 -4 -10 -4 -6 1 4 4 3 14 -3 22 -6 7 -9 13 -6 13 2 0 10 -6 16 -14z
m-1305 -14 c3 -5 -1 -9 -9 -9 -8 0 -15 4 -15 9 0 4 4 8 9 8 6 0 12 -4 15 -8z
m36 -2 c0 -5 -2 -10 -4 -10 -3 0 -8 5 -11 10 -3 6 -1 10 4 10 6 0 11 -4 11
-10z m1075 1 c3 -5 2 -12 -3 -15 -5 -3 -9 1 -9 9 0 17 3 19 12 6z m125 1 c0
-5 -7 -9 -15 -9 -8 0 -12 4 -9 9 3 4 9 8 15 8 5 0 9 -4 9 -8z m-1120 -18 c0
-8 -19 -13 -24 -6 -3 5 1 9 9 9 8 0 15 -2 15 -3z m55 -4 c3 -5 1 -10 -4 -10
-6 0 -11 5 -11 10 0 6 2 10 4 10 3 0 8 -4 11 -10z m-16 -33 c8 -10 7 -14 -2
-14 -8 0 -14 6 -14 14 0 7 1 13 2 13 2 0 8 -6 14 -13z m-103 -9 c3 -4 -1 -5
-10 -4 -8 1 -18 5 -22 8 -3 4 1 5 10 4 8 -1 18 -5 22 -8z m215 -11 c-10 -9
-11 -8 -5 6 3 10 9 15 12 12 3 -3 0 -11 -7 -18z m789 17 c0 -8 -19 -13 -24 -6
-3 5 1 9 9 9 8 0 15 -2 15 -3z m74 -10 c3 -8 2 -12 -4 -9 -6 3 -10 10 -10 16
0 14 7 11 14 -7z m177 -7 c-10 -9 -11 -8 -5 6 3 10 9 15 12 12 3 -3 0 -11 -7
-18z m-254 -22 c0 -8 -4 -15 -9 -15 -10 0 -11 14 -1 23 9 10 10 9 10 -8z m75
-6 c2 -2 1 -3 -1 -2 -2 2 -9 -2 -16 -7 -8 -7 -12 -5 -12 4 0 12 22 16 29 5z
m84 -1 c3 -4 -1 -5 -10 -4 -8 1 -18 5 -22 8 -3 4 1 5 10 4 8 -1 18 -5 22 -8z
m-177 -31 c8 -10 7 -14 -2 -14 -8 0 -14 6 -14 14 0 7 1 13 2 13 2 0 8 -6 14
-13z m-1108 -20 c-10 -9 -11 -8 -5 6 3 10 9 15 12 12 3 -3 0 -11 -7 -18z
m1215 11 c3 -4 -1 -5 -10 -4 -8 1 -18 5 -22 8 -3 4 1 5 10 4 8 -1 18 -5 22 -8z
m935 -11 c-6 -8 -7 -18 -3 -22 4 -5 1 -5 -6 -1 -10 6 -10 11 -1 22 6 8 14 14
16 14 3 0 0 -6 -6 -13z m-1924 -12 c0 -8 -4 -12 -9 -9 -5 3 -6 10 -3 15 9 13
12 11 12 -6z m1043 1 c-7 -7 -13 -7 -20 0 -6 6 -3 10 10 10 13 0 16 -4 10 -10z
m1357 -1 c0 -8 -4 -12 -9 -9 -5 3 -6 10 -3 15 9 13 12 11 12 -6z m480 0 c0 -8
-4 -12 -9 -9 -5 3 -6 10 -3 15 9 13 12 11 12 -6z m-1880 -10 c0 -8 -4 -12 -9
-9 -5 3 -6 10 -3 15 9 13 12 11 12 -6z m78 6 c3 -5 2 -12 -3 -15 -5 -3 -9 1
-9 9 0 17 3 19 12 6z m938 -6 c-3 -9 -8 -14 -10 -11 -3 3 -2 9 2 15 9 16 15
13 8 -4z m240 0 c-3 -9 -8 -14 -10 -11 -3 3 -2 9 2 15 9 16 15 13 8 -4z m240
0 c-3 -9 -8 -14 -10 -11 -3 3 -2 9 2 15 9 16 15 13 8 -4z m240 0 c-3 -9 -8
-14 -10 -11 -3 3 -2 9 2 15 9 16 15 13 8 -4z m240 0 c-3 -9 -8 -14 -10 -11 -3
3 -2 9 2 15 9 16 15 13 8 -4z m240 0 c-3 -9 -8 -14 -10 -11 -3 3 -2 9 2 15 9
16 15 13 8 -4z m-3458 -13 c-3 -3 -11 0 -18 7 -9 10 -8 11 6 5 10 -3 15 -9 12
-12z m101 6 c3 -4 -1 -5 -10 -4 -8 1 -18 5 -22 8 -3 4 1 5 10 4 8 -1 18 -5 22
-8z m178 4 c3 -5 -1 -9 -9 -9 -8 0 -12 4 -9 9 3 4 7 8 9 8 2 0 6 -4 9 -8z
m826 -2 c0 -5 -2 -10 -4 -10 -3 0 -8 5 -11 10 -3 6 -1 10 4 10 6 0 11 -4 11
-10z m2377 -5 c0 -8 -4 -12 -9 -9 -5 3 -6 10 -3 15 9 13 12 11 12 -6z m459 3
c4 -7 4 -10 -1 -6 -4 4 -15 2 -24 -5 -14 -11 -14 -10 -2 6 16 20 18 21 27 5z
m-1939 -13 c0 -8 -4 -12 -9 -9 -5 3 -6 10 -3 15 9 13 12 11 12 -6z m-1953 -7
c-3 -4 -9 -8 -15 -8 -5 0 -9 4 -9 8 0 5 7 9 15 9 8 0 12 -4 9 -9z m976 2 c0
-5 -5 -10 -11 -10 -5 0 -7 5 -4 10 3 6 8 10 11 10 2 0 4 -4 4 -10z m260 0 c0
-5 -4 -10 -10 -10 -5 0 -10 5 -10 10 0 6 5 10 10 10 6 0 10 -4 10 -10z m2277
-5 c0 -8 -4 -12 -9 -9 -5 3 -6 10 -3 15 9 13 12 11 12 -6z m-3461 -7 c5 4 5 3
1 -2 -12 -15 -34 -15 -34 0 0 9 4 11 12 4 7 -5 16 -6 21 -2z m1004 -9 c0 -5
-4 -9 -8 -9 -5 0 -9 7 -9 15 0 8 4 12 9 9 4 -3 8 -9 8 -15z m-800 1 c0 -5 -2
-10 -4 -10 -3 0 -8 5 -11 10 -3 6 -1 10 4 10 6 0 11 -4 11 -10z m895 1 c3 -5
2 -12 -3 -15 -5 -3 -9 1 -9 9 0 17 3 19 12 6z m2419 -7 c3 -8 2 -12 -4 -9 -6
3 -10 10 -10 16 0 14 7 11 14 -7z m126 10 c0 -8 -19 -13 -24 -6 -3 5 1 9 9 9
8 0 15 -2 15 -3z m60 -9 c-5 -7 -9 -14 -7 -16 1 -2 0 -3 -2 -1 -11 7 -7 29 5
29 9 0 11 -4 4 -12z m144 4 c3 -3 -5 -5 -19 -5 -13 0 -22 3 -19 7 4 8 30 6 38
-2z m-109 -8 c3 -5 2 -12 -3 -15 -5 -3 -9 1 -9 9 0 17 3 19 12 6z m-2595 -5
c0 -3 -4 -8 -10 -11 -5 -3 -10 -1 -10 4 0 6 5 11 10 11 6 0 10 -2 10 -4z m40
0 c0 -2 -7 -7 -16 -10 -8 -3 -12 -2 -9 4 6 10 25 14 25 6z m44 -4 c2 -4 -4 -8
-14 -8 -10 0 -16 4 -14 8 3 4 9 8 14 8 5 0 11 -4 14 -8z m2673 -9 c0 -9 -4
-10 -14 -2 -7 6 -13 12 -13 14 0 1 6 2 13 2 8 0 14 -6 14 -14z m-3697 -14 c0
-5 -4 -9 -8 -9 -5 0 -9 7 -9 15 0 8 4 12 9 9 4 -3 8 -9 8 -15z m817 6 c0 -8
-4 -12 -9 -9 -5 3 -6 10 -3 15 9 13 12 11 12 -6z m-1112 -5 c-3 -5 -12 -10
-18 -10 -7 0 -6 4 3 10 19 12 23 12 15 0z m232 -5 c0 -8 -4 -12 -9 -9 -5 3 -6
10 -3 15 9 13 12 11 12 -6z m843 9 c0 -8 -19 -13 -24 -6 -3 5 1 9 9 9 8 0 15
-2 15 -3z m-43 -19 c0 -8 -4 -12 -9 -9 -5 3 -6 10 -3 15 9 13 12 11 12 -6z
m2957 -4 c3 -5 -2 -15 -12 -22 -15 -12 -16 -12 -5 2 7 9 10 19 6 22 -3 4 -4 7
0 7 3 0 8 -4 11 -9z m-3674 -5 c0 -2 -8 -10 -17 -17 -16 -13 -17 -12 -4 4 13
16 21 21 21 13z m815 -8 c5 4 5 1 1 -6 -6 -10 -11 -10 -22 -1 -8 6 -14 14 -14
16 0 3 6 0 13 -6 8 -6 18 -7 22 -3z m2937 0 c-14 -14 -44 -20 -36 -7 3 5 9 7
14 4 5 -3 11 -1 15 5 3 5 9 10 13 10 3 0 1 -5 -6 -12z m-3995 -17 c0 -11 -5
-18 -9 -15 -4 3 -5 11 -1 19 7 21 12 19 10 -4z m3883 13 c0 -8 -19 -13 -24 -6
-3 5 1 9 9 9 8 0 15 -2 15 -3z m-85 -13 c3 -5 2 -12 -3 -15 -5 -3 -9 1 -9 9 0
17 3 19 12 6z m-3831 -9 c3 -5 -1 -9 -9 -9 -8 0 -15 4 -15 9 0 4 4 8 9 8 6 0
12 -4 15 -8z m3876 4 c0 -2 -7 -7 -16 -10 -8 -3 -12 -2 -9 4 6 10 25 14 25 6z
m60 -27 c0 -5 -4 -9 -8 -9 -5 0 -9 7 -9 15 0 8 4 12 9 9 4 -3 8 -9 8 -15z
m-3760 2 c0 -6 -4 -12 -8 -15 -5 -3 -9 1 -9 9 0 8 4 15 9 15 4 0 8 -4 8 -9z
m-139 -18 c13 -16 12 -17 -3 -4 -10 7 -18 15 -18 17 0 8 8 3 21 -13z m3684 -3
c-3 -5 -12 -10 -18 -10 -7 0 -6 4 3 10 19 12 23 12 15 0z m32 3 c-4 -3 -2 -11
3 -18 7 -8 5 -12 -4 -12 -8 0 -12 7 -11 16 5 22 4 21 12 21 3 0 3 -3 0 -7z
m-3761 -29 c-1 -8 -6 -17 -12 -21 -5 -4 -6 -4 -2 1 4 5 3 14 -2 21 -7 8 -5 12
4 12 8 0 13 -6 12 -13z m104 10 c0 -8 -19 -13 -24 -6 -3 5 1 9 9 9 8 0 15 -2
15 -3z m56 -20 c1 -9 0 -13 -4 -10 -3 4 -7 14 -8 22 -1 9 0 13 4 10 3 -4 7
-14 8 -22z m40 10 c-1 -8 -6 -17 -12 -21 -5 -4 -6 -4 -2 1 4 5 3 14 -2 21 -7
8 -5 12 4 12 8 0 13 -6 12 -13z m3761 1 c0 -8 -4 -12 -9 -9 -4 3 -8 9 -8 15 0
5 4 9 8 9 5 0 9 -7 9 -15z m-3917 -9 c0 -2 -7 -7 -16 -10 -8 -3 -12 -2 -9 4 6
10 25 14 25 6z m85 -6 c3 -6 -1 -7 -9 -4 -18 7 -21 14 -7 14 6 0 13 -4 16 -10z
m800 0 c-3 -5 -12 -10 -18 -10 -7 0 -6 4 3 10 19 12 23 12 15 0z m95 6 c0 -3
-4 -8 -10 -11 -5 -3 -10 -1 -10 4 0 6 5 11 10 11 6 0 10 -2 10 -4z m2691 -13
c13 -16 12 -17 -3 -4 -10 7 -18 15 -18 17 0 8 8 3 21 -13z m289 9 c0 -5 -7 -9
-15 -9 -8 0 -12 4 -9 9 3 4 9 8 15 8 5 0 9 -4 9 -8z m-3045 -11 c3 -5 2 -12
-3 -15 -5 -3 -9 1 -9 9 0 17 3 19 12 6z m3001 -13 c3 -4 -1 -5 -10 -4 -8 1
-18 5 -22 8 -3 4 1 5 10 4 8 -1 18 -5 22 -8z m-3036 -18 c0 -5 -5 -10 -11 -10
-5 0 -7 5 -4 10 3 6 8 10 11 10 2 0 4 -4 4 -10z m2840 -2 c0 -4 -4 -8 -9 -8
-6 0 -12 4 -15 8 -3 5 1 9 9 9 8 0 15 -4 15 -9z m178 -23 c-3 -3 -9 2 -12 12
-6 14 -5 15 5 6 7 -7 10 -15 7 -18z m-3754 7 c3 -5 -1 -9 -9 -9 -8 0 -12 4 -9
9 3 4 7 8 9 8 2 0 6 -4 9 -8z m-107 -17 c0 -8 -4 -12 -9 -9 -5 3 -6 10 -3 15
9 13 12 11 12 -6z m3679 -11 c1 -9 0 -13 -4 -10 -3 4 -7 14 -8 22 -1 9 0 13 4
10 3 -4 7 -14 8 -22z m-3712 8 c3 -5 -1 -9 -9 -9 -8 0 -15 4 -15 9 0 4 4 8 9
8 6 0 12 -4 15 -8z m881 -2 c3 -6 -1 -7 -9 -4 -18 7 -21 14 -7 14 6 0 13 -4
16 -10z m35 0 c0 -5 -2 -10 -4 -10 -3 0 -8 5 -11 10 -3 6 -1 10 4 10 6 0 11
-4 11 -10z m-987 -15 c-3 -9 -8 -14 -10 -11 -3 3 -2 9 2 15 9 16 15 13 8 -4z
m244 0 c0 -8 -4 -15 -9 -15 -10 0 -11 14 -1 23 9 10 10 9 10 -8z m-220 -10 c0
-8 -4 -12 -9 -9 -5 3 -6 10 -3 15 9 13 12 11 12 -6z m3799 -11 c1 -9 0 -13 -4
-10 -3 4 -7 14 -8 22 -1 9 0 13 4 10 3 -4 7 -14 8 -22z m-3536 0 c0 -8 -19
-13 -24 -6 -3 5 1 9 9 9 8 0 15 -2 15 -3z m695 -12 c-3 -3 -11 0 -18 7 -9 10
-8 11 6 5 10 -3 15 -9 12 -12z m-38 -5 c0 -8 -6 -14 -14 -14 -9 0 -10 4 -2 14
6 7 12 13 14 13 1 0 2 -6 2 -13z m-927 -3 c0 -8 -19 -13 -24 -6 -3 5 1 9 9 9
8 0 15 -2 15 -3z m106 -6 c3 -4 -1 -5 -10 -4 -8 1 -18 5 -22 8 -3 4 1 5 10 4
8 -1 18 -5 22 -8z m108 4 c3 -5 -1 -9 -9 -9 -8 0 -12 4 -9 9 3 4 7 8 9 8 2 0
6 -4 9 -8z m30 -8 c3 -8 2 -12 -4 -9 -6 3 -10 10 -10 16 0 14 7 11 14 -7z
m3590 8 c3 -5 -1 -9 -9 -9 -8 0 -12 4 -9 9 3 4 7 8 9 8 2 0 6 -4 9 -8z m100 0
c3 -5 -1 -9 -9 -9 -8 0 -12 4 -9 9 3 4 7 8 9 8 2 0 6 -4 9 -8z m126 2 c0 -8
-19 -13 -24 -6 -3 5 1 9 9 9 8 0 15 -2 15 -3z m-4094 -29 c-1 -8 -5 -17 -8
-21 -5 -4 -4 16 1 34 3 9 9 -1 7 -13z m3881 -10 c0 -8 -4 -12 -9 -9 -5 3 -6
10 -3 15 9 13 12 11 12 -6z m-2921 -10 c-1 -8 -5 -17 -8 -21 -5 -4 -4 16 1 34
3 9 9 -1 7 -13z m2874 9 c0 -8 -19 -13 -24 -6 -3 5 1 9 9 9 8 0 15 -2 15 -3z
m204 -2 c3 -5 -1 -9 -9 -9 -8 0 -12 4 -9 9 3 4 7 8 9 8 2 0 6 -4 9 -8z m60 -8
c3 -8 2 -12 -4 -9 -6 3 -10 10 -10 16 0 14 7 11 14 -7z m-179 -14 c3 -5 1 -10
-4 -10 -6 0 -11 5 -11 10 0 6 2 10 4 10 3 0 8 -4 11 -10z m45 -2 c0 -4 -4 -8
-9 -8 -6 0 -12 4 -15 8 -3 5 1 9 9 9 8 0 15 -4 15 -9z m-142 -23 c-3 -3 -9 2
-12 12 -6 14 -5 15 5 6 7 -7 10 -15 7 -18z m-3674 7 c3 -5 -1 -9 -9 -9 -8 0
-12 4 -9 9 3 4 7 8 9 8 2 0 6 -4 9 -8z m3650 0 c3 -5 -1 -9 -9 -9 -8 0 -12 4
-9 9 3 4 7 8 9 8 2 0 6 -4 9 -8z m-3638 -37 c-1 -8 -5 -17 -8 -21 -5 -4 -4 16
1 34 3 9 9 -1 7 -13z m48 -3 c3 -5 -1 -9 -9 -9 -8 0 -12 4 -9 9 3 4 7 8 9 8 2
0 6 -4 9 -8z m3596 4 c0 -2 -7 -7 -16 -10 -8 -3 -12 -2 -9 4 6 10 25 14 25 6z
m-3800 -30 c-7 -7 -13 -7 -20 0 -6 6 -3 10 10 10 13 0 16 -4 10 -10z m36 -1
c-1 -8 -5 -17 -8 -21 -5 -4 -4 16 1 34 3 9 9 -1 7 -13z m239 6 c3 -5 2 -12 -3
-15 -5 -3 -9 1 -9 9 0 17 3 19 12 6z m3562 -8 c0 -9 -4 -10 -14 -2 -7 6 -13
12 -13 14 0 1 6 2 13 2 8 0 14 -6 14 -14z m118 7 c3 -5 1 -10 -4 -10 -6 0 -11
5 -11 10 0 6 2 10 4 10 3 0 8 -4 11 -10z m-3878 -13 c0 -8 -6 -14 -14 -14 -9
0 -10 4 -2 14 6 7 12 13 14 13 1 0 2 -6 2 -13z m3719 -2 c-1 -8 -5 -17 -8 -21
-5 -4 -4 16 1 34 3 9 9 -1 7 -13z m123 2 c8 -10 7 -14 -2 -14 -8 0 -14 6 -14
14 0 7 1 13 2 13 2 0 8 -6 14 -13z m-3739 -1 c0 -3 -4 -8 -10 -11 -5 -3 -10
-1 -10 4 0 6 5 11 10 11 6 0 10 -2 10 -4z m-180 -25 c0 -6 -4 -12 -8 -15 -5
-3 -9 1 -9 9 0 8 4 15 9 15 4 0 8 -4 8 -9z m3994 -7 c3 -8 2 -12 -4 -9 -6 3
-10 10 -10 16 0 14 7 11 14 -7z m-3936 -19 c-3 -3 -9 2 -12 12 -6 14 -5 15 5
6 7 -7 10 -15 7 -18z m119 10 c0 -8 -4 -15 -9 -15 -10 0 -11 14 -1 23 9 10 10
9 10 -8z m-142 -4 c3 -5 2 -12 -3 -15 -5 -3 -9 1 -9 9 0 17 3 19 12 6z m217
-2 c2 -2 1 -3 -1 -2 -2 2 -9 -2 -16 -7 -8 -7 -12 -5 -12 4 0 12 22 16 29 5z
m3705 -4 c0 -8 -4 -12 -9 -9 -5 3 -6 10 -3 15 9 13 12 11 12 -6z m119 0 c-1
-8 -5 -17 -8 -21 -5 -4 -4 16 1 34 3 9 9 -1 7 -13z m-4071 -15 c3 -6 -1 -7 -9
-4 -18 7 -21 14 -7 14 6 0 13 -4 16 -10z m965 4 c0 -8 -19 -13 -24 -6 -3 5 1
9 9 9 8 0 15 -2 15 -3z m27 -9 c0 -8 -4 -12 -9 -9 -5 3 -6 10 -3 15 9 13 12
11 12 -6z m2997 7 c3 -5 -1 -9 -9 -9 -8 0 -12 4 -9 9 3 4 7 8 9 8 2 0 6 -4 9
-8z m-140 -20 c2 -4 -5 -9 -17 -9 -17 -2 -19 0 -7 7 18 12 18 12 24 2z m96 2
c0 -8 -19 -13 -24 -6 -3 5 1 9 9 9 8 0 15 -2 15 -3z m104 -2 c3 -5 -1 -9 -9
-9 -8 0 -12 4 -9 9 3 4 7 8 9 8 2 0 6 -4 9 -8z m-3034 -16 c0 -3 -4 -8 -10
-11 -5 -3 -10 -1 -10 4 0 6 5 11 10 11 6 0 10 -2 10 -4z m2835 -25 c-8 -7 -45
-9 -50 -1 -2 3 9 6 25 6 17 0 27 -2 25 -5z m-37 -46 c-3 -3 -9 2 -12 12 -6 14
-5 15 5 6 7 -7 10 -15 7 -18z m35 10 c-3 -9 -8 -14 -10 -11 -3 3 -2 9 2 15 9
16 15 13 8 -4z m-3778 -4 c3 -5 2 -12 -3 -15 -5 -3 -9 1 -9 9 0 17 3 19 12 6z
m925 3 c0 -8 -19 -13 -24 -6 -3 5 1 9 9 9 8 0 15 -2 15 -3z m434 -2 c3 -5 -1
-9 -9 -9 -8 0 -12 4 -9 9 3 4 7 8 9 8 2 0 6 -4 9 -8z m35 -6 c9 -11 9 -16 -1
-22 -7 -4 -10 -4 -6 1 4 4 3 14 -3 22 -6 7 -9 13 -6 13 2 0 10 -6 16 -14z m81
8 c0 -8 -19 -13 -24 -6 -3 5 1 9 9 9 8 0 15 -2 15 -3z m2244 -2 c3 -5 -1 -9
-9 -9 -8 0 -12 4 -9 9 3 4 7 8 9 8 2 0 6 -4 9 -8z m-3669 -22 c3 -6 -1 -7 -9
-4 -18 7 -21 14 -7 14 6 0 13 -4 16 -10z m1395 6 c0 -2 -7 -7 -16 -10 -8 -3
-12 -2 -9 4 6 10 25 14 25 6z m2520 -4 c0 -5 -7 -9 -15 -9 -8 0 -12 4 -9 9 3
4 9 8 15 8 5 0 9 -4 9 -8z m-2944 -17 c-1 -8 -5 -17 -8 -21 -5 -4 -4 16 1 34
3 9 9 -1 7 -13z m-1052 -3 c3 -5 -1 -9 -9 -9 -8 0 -12 4 -9 9 3 4 7 8 9 8 2 0
6 -4 9 -8z m70 0 c3 -5 -1 -9 -9 -9 -8 0 -12 4 -9 9 3 4 7 8 9 8 2 0 6 -4 9
-8z m3686 4 c0 -2 -7 -7 -16 -10 -8 -3 -12 -2 -9 4 6 10 25 14 25 6z m-3787
-39 c4 3 7 4 7 0 0 -17 -20 -14 -36 6 -19 22 -19 22 2 4 11 -9 24 -14 27 -10z
m184 16 c-4 -3 -1 -13 6 -22 11 -14 10 -14 -5 -2 -16 12 -16 31 -1 31 4 0 3
-3 0 -7z m78 -3 c3 -5 1 -10 -4 -10 -6 0 -11 5 -11 10 0 6 2 10 4 10 3 0 8 -4
11 -10z m45 -2 c0 -4 -4 -8 -9 -8 -6 0 -12 4 -15 8 -3 5 1 9 9 9 8 0 15 -4 15
-9z m1476 -3 c-1 -8 -5 -17 -8 -21 -5 -4 -4 16 1 34 3 9 9 -1 7 -13z m39 6 c3
-5 2 -12 -3 -15 -5 -3 -9 1 -9 9 0 17 3 19 12 6z m95 3 c0 -8 -19 -13 -24 -6
-3 5 1 9 9 9 8 0 15 -2 15 -3z m27 -1 c-4 -3 -2 -11 3 -18 7 -8 5 -12 -4 -12
-8 0 -12 7 -11 16 5 22 4 21 12 21 3 0 3 -3 0 -7z m159 -8 c-1 -8 -5 -17 -8
-21 -5 -4 -4 16 1 34 3 9 9 -1 7 -13z m39 6 c3 -5 2 -12 -3 -15 -5 -3 -9 1 -9
9 0 17 3 19 12 6z m169 -3 c-3 -4 -9 -8 -15 -8 -5 0 -9 4 -9 8 0 5 7 9 15 9 8
0 12 -4 9 -9z m32 -3 c-1 -8 -5 -17 -8 -21 -5 -4 -4 16 1 34 3 9 9 -1 7 -13z
m39 6 c3 -5 2 -12 -3 -15 -5 -3 -9 1 -9 9 0 17 3 19 12 6z m409 -3 c-3 -4 -9
-8 -15 -8 -5 0 -9 4 -9 8 0 5 7 9 15 9 8 0 12 -4 9 -9z m33 -3 c0 -8 -4 -12
-9 -9 -5 3 -6 10 -3 15 9 13 12 11 12 -6z m39 -10 c1 -8 -1 -17 -5 -19 -4 -3
-7 6 -7 19 0 25 8 25 12 0z m959 7 c-3 -3 -11 0 -18 7 -9 10 -8 11 6 5 10 -3
15 -9 12 -12z m45 6 c0 -4 -4 -8 -9 -8 -6 0 -12 4 -15 8 -3 5 1 9 9 9 8 0 15
-4 15 -9z m74 3 c3 -5 -2 -15 -12 -22 -15 -12 -16 -12 -5 2 7 9 10 19 6 22 -3
4 -4 7 0 7 3 0 8 -4 11 -9z m-158 -16 c-1 -8 -5 -17 -8 -21 -5 -4 -4 16 1 34
3 9 9 -1 7 -13z m-3652 -4 c3 -5 -2 -8 -12 -7 -9 0 -16 -5 -14 -12 1 -8 -2
-11 -8 -7 -8 5 -7 11 1 21 13 16 25 18 33 5z m96 5 c0 -3 -4 -8 -10 -11 -5 -3
-10 -1 -10 4 0 6 5 11 10 11 6 0 10 -2 10 -4z m886 -8 c3 -4 -1 -5 -10 -4 -8
1 -18 5 -22 8 -3 4 1 5 10 4 8 -1 18 -5 22 -8z m1378 4 c3 -5 -1 -9 -9 -9 -8
0 -12 4 -9 9 3 4 7 8 9 8 2 0 6 -4 9 -8z m81 -1 c-9 -8 -36 -10 -30 -2 2 4 11
8 20 8 8 0 13 -3 10 -6z m371 -17 c1 -9 0 -13 -4 -10 -3 4 -7 14 -8 22 -1 9 0
13 4 10 3 -4 7 -14 8 -22z m964 16 c0 -5 -2 -10 -4 -10 -3 0 -8 5 -11 10 -3 6
-1 10 4 10 6 0 11 -4 11 -10z m-83 -15 c0 -8 -4 -15 -9 -15 -10 0 -11 14 -1
23 9 10 10 9 10 -8z m-3752 -5 c3 -6 -1 -7 -9 -4 -18 7 -21 14 -7 14 6 0 13
-4 16 -10z m239 2 c3 -5 -1 -9 -9 -9 -8 0 -15 4 -15 9 0 4 4 8 9 8 6 0 12 -4
15 -8z m1246 -10 c39 -1 51 1 40 8 -9 6 -10 10 -3 10 7 0 17 -8 22 -17 6 -10
11 -13 11 -6 0 8 14 10 46 6 33 -4 49 -2 55 8 5 8 9 9 9 4 0 -16 110 -18 110
-2 0 8 3 8 8 1 10 -15 185 -16 194 -1 5 7 8 8 8 2 0 -16 110 -18 110 -2 0 7 3
8 8 2 11 -16 104 -18 114 -3 4 7 8 8 8 3 0 -6 33 -11 78 -12 52 -2 72 1 62 7
-8 5 -10 10 -4 10 6 0 14 -3 18 -7 4 -5 38 -9 74 -9 37 -1 76 -5 86 -10 15 -5
17 -4 11 6 -5 8 -4 11 3 6 5 -3 13 -1 15 4 3 6 4 5 3 -2 -2 -7 4 -21 12 -31
19 -22 22 -34 25 -112 2 -33 7 -66 11 -74 6 -10 5 -12 -2 -7 -7 4 -12 1 -12
-9 0 -10 5 -13 13 -9 9 6 9 4 1 -7 -6 -8 -10 -26 -7 -40 2 -15 -1 -37 -6 -50
-8 -18 -10 -20 -10 -6 -1 11 -6 15 -12 11 -18 -11 -89 -13 -95 -3 -3 5 -13 5
-23 0 -19 -10 -46 -9 -57 2 -4 4 -13 2 -20 -4 -8 -7 -14 -7 -19 1 -3 6 -11 8
-16 4 -19 -11 -58 -14 -64 -4 -4 7 -13 7 -26 0 -14 -8 -19 -7 -19 2 0 8 -3 9
-8 3 -9 -13 -82 -16 -82 -3 0 5 -6 6 -12 1 -20 -12 -41 -13 -54 -2 -8 6 -14 6
-18 0 -5 -7 -23 -8 -43 -2 -10 3 -18 -3 -15 -12 2 -7 -1 -7 -10 0 -7 6 -25 10
-40 8 -16 -2 -31 1 -34 6 -4 6 -11 6 -19 -1 -9 -8 -15 -8 -20 0 -3 6 -11 8
-16 5 -20 -13 -53 -14 -61 -2 -6 9 -8 9 -8 -1 0 -7 -4 -11 -9 -8 -5 3 -26 8
-47 11 -52 6 -67 9 -81 18 -7 5 -17 5 -23 2 -5 -3 -10 -2 -10 3 0 6 -7 13 -16
16 -10 4 -13 2 -8 -7 4 -6 -3 -2 -15 11 -20 20 -34 26 -53 23 -5 0 -7 2 -5 7
1 4 -1 8 -6 9 -4 2 -22 20 -40 40 -17 21 -38 44 -44 51 -7 7 -13 18 -13 23 0
5 -7 9 -16 9 -8 0 -13 4 -9 9 3 5 -5 17 -17 25 -12 9 -19 16 -14 16 4 0 -2 16
-14 35 l-22 35 36 0 c22 0 36 5 36 13 0 7 3 8 8 2 4 -6 32 -11 62 -13z m1354
10 c3 -5 -1 -9 -9 -9 -8 0 -15 4 -15 9 0 4 4 8 9 8 6 0 12 -4 15 -8z m-2907
-17 c0 -8 -4 -15 -9 -15 -10 0 -11 14 -1 23 9 10 10 9 10 -8z m260 -10 c0 -8
-4 -12 -9 -9 -5 3 -6 10 -3 15 9 13 12 11 12 -6z m974 -8 c-10 -9 -11 -8 -5 6
3 10 9 15 12 12 3 -3 0 -11 -7 -18z m1459 17 c0 -8 -19 -13 -24 -6 -3 5 1 9 9
9 8 0 15 -2 15 -3z m170 2 c0 -2 -7 -7 -16 -10 -8 -3 -12 -2 -9 4 6 10 25 14
25 6z m115 -5 c3 -5 2 -12 -3 -15 -5 -3 -9 1 -9 9 0 17 3 19 12 6z m880 0 c3
-5 2 -12 -3 -15 -5 -3 -9 1 -9 9 0 17 3 19 12 6z m-2471 -23 c-3 -4 -9 -8 -15
-8 -5 0 -9 4 -9 8 0 5 7 9 15 9 8 0 12 -4 9 -9z m2440 4 c2 -4 -4 -8 -14 -8
-10 0 -16 4 -14 8 3 4 9 8 14 8 5 0 11 -4 14 -8z m-2489 -11 c3 -5 2 -12 -3
-15 -5 -3 -9 1 -9 9 0 17 3 19 12 6z m84 -4 c8 -10 7 -14 -2 -14 -8 0 -14 6
-14 14 0 7 1 13 2 13 2 0 8 -6 14 -13z m-159 -12 c0 -2 -9 -3 -19 -2 -11 0
-18 5 -15 9 4 6 34 0 34 -7z m1517 -2 c0 -8 -4 -10 -12 -3 -7 5 -16 6 -20 2
-5 -4 -5 -2 -2 4 9 15 34 13 34 -3z m119 1 c-1 -8 -6 -17 -12 -21 -5 -4 -6 -4
-2 1 4 5 3 14 -2 21 -7 8 -5 12 4 12 8 0 13 -6 12 -13z m104 10 c0 -8 -19 -13
-24 -6 -3 5 1 9 9 9 8 0 15 -2 15 -3z m900 0 c0 -8 -19 -13 -24 -6 -3 5 1 9 9
9 8 0 15 -2 15 -3z m170 0 c0 -8 -19 -13 -24 -6 -3 5 1 9 9 9 8 0 15 -2 15 -3z
m-4077 -37 c4 3 7 4 7 0 0 -17 -20 -14 -36 6 -19 22 -19 22 2 4 11 -9 24 -14
27 -10z m2827 15 c0 -5 -7 -9 -15 -9 -8 0 -12 4 -9 9 3 4 9 8 15 8 5 0 9 -4 9
-8z m120 4 c0 -2 -7 -7 -16 -10 -8 -3 -12 -2 -9 4 6 10 25 14 25 6z m890 1 c0
-2 -9 -12 -19 -21 -14 -13 -21 -14 -27 -5 -4 7 -3 10 3 6 6 -4 16 0 23 8 12
14 20 19 20 12z m-3573 -22 c0 -8 -4 -12 -9 -9 -5 3 -6 10 -3 15 9 13 12 11
12 -6z m2804 -2 c13 -16 12 -17 -3 -4 -10 7 -18 15 -18 17 0 8 8 3 21 -13z
m794 8 c3 -5 2 -12 -3 -15 -5 -3 -9 1 -9 9 0 17 3 19 12 6z m-2478 -16 c0 -8
-4 -12 -9 -9 -5 3 -6 10 -3 15 9 13 12 11 12 -6z m1399 3 c3 -4 -1 -5 -10 -4
-8 1 -18 5 -22 8 -3 4 1 5 10 4 8 -1 18 -5 22 -8z m1095 -11 c-10 -9 -11 -8
-5 6 3 10 9 15 12 12 3 -3 0 -11 -7 -18z m143 15 c3 -5 -1 -9 -9 -9 -8 0 -12
4 -9 9 3 4 7 8 9 8 2 0 6 -4 9 -8z m60 -8 c3 -8 2 -12 -4 -9 -6 3 -10 10 -10
16 0 14 7 11 14 -7z m-3777 -9 c0 -8 -4 -15 -9 -15 -10 0 -11 14 -1 23 9 10
10 9 10 -8z m1160 0 c0 -8 -4 -12 -9 -9 -5 3 -6 10 -3 15 9 13 12 11 12 -6z
m-33 -3 c2 -4 -4 -8 -14 -8 -10 0 -16 4 -14 8 3 4 9 8 14 8 5 0 11 -4 14 -8z
m1413 -17 c0 -8 -4 -12 -9 -9 -5 3 -6 10 -3 15 9 13 12 11 12 -6z m958 6 c3
-5 2 -12 -3 -15 -5 -3 -9 1 -9 9 0 17 3 19 12 6z m-3614 -14 c-6 -8 -7 -18 -3
-22 4 -5 1 -5 -6 -1 -10 6 -10 11 -1 22 6 8 14 14 16 14 3 0 0 -6 -6 -13z m43
1 c-3 -4 -9 -8 -15 -8 -5 0 -9 4 -9 8 0 5 7 9 15 9 8 0 12 -4 9 -9z m2581 2
c3 -6 -1 -7 -9 -4 -18 7 -21 14 -7 14 6 0 13 -4 16 -10z m240 1 c-9 -8 -36
-10 -30 -2 2 4 11 8 20 8 8 0 13 -3 10 -6z m852 -10 c0 -11 -5 -18 -9 -15 -4
3 -5 11 -1 19 7 21 12 19 10 -4z m-960 -6 c0 -8 -4 -12 -9 -9 -5 3 -6 10 -3
15 9 13 12 11 12 -6z m-2793 -3 c3 -5 -1 -9 -9 -9 -8 0 -15 4 -15 9 0 4 4 8 9
8 6 0 12 -4 15 -8z m116 4 c0 -3 -4 -8 -10 -11 -5 -3 -10 -1 -10 4 0 6 5 11
10 11 6 0 10 -2 10 -4z m45 -5 c-9 -8 -36 -10 -30 -2 2 4 11 8 20 8 8 0 13 -3
10 -6z m2599 1 c3 -5 -1 -9 -9 -9 -8 0 -15 4 -15 9 0 4 4 8 9 8 6 0 12 -4 15
-8z m-2831 -17 c-3 -9 -8 -14 -10 -11 -3 3 -2 9 2 15 9 16 15 13 8 -4z m24
-10 c0 -8 -4 -12 -9 -9 -5 3 -6 10 -3 15 9 13 12 11 12 -6z m2878 6 c3 -5 2
-12 -3 -15 -5 -3 -9 1 -9 9 0 17 3 19 12 6z m879 1 c3 -5 -1 -9 -9 -9 -8 0
-12 4 -9 9 3 4 7 8 9 8 2 0 6 -4 9 -8z m-1069 -22 c-3 -5 -12 -10 -18 -10 -7
0 -6 4 3 10 19 12 23 12 15 0z m32 3 c-4 -3 -2 -11 3 -18 7 -8 5 -12 -4 -12
-8 0 -12 7 -11 16 5 22 4 21 12 21 3 0 3 -3 0 -7z m963 -5 c0 -4 -4 -8 -9 -8
-6 0 -12 4 -15 8 -3 5 1 9 9 9 8 0 15 -4 15 -9z m-3724 -23 c-1 -8 -5 -17 -8
-21 -5 -4 -4 16 1 34 3 9 9 -1 7 -13z m2668 7 c3 -5 -1 -9 -9 -9 -8 0 -12 4
-9 9 3 4 7 8 9 8 2 0 6 -4 9 -8z m172 -8 c-1 -8 -6 -17 -12 -21 -5 -4 -6 -4
-2 1 4 5 3 14 -2 21 -7 8 -5 12 4 12 8 0 13 -6 12 -13z m104 10 c0 -8 -19 -13
-24 -6 -3 5 1 9 9 9 8 0 15 -2 15 -3z m-1465 -13 c3 -5 2 -12 -3 -15 -5 -3 -9
1 -9 9 0 17 3 19 12 6z m2365 5 c0 -2 -8 -10 -17 -17 -16 -13 -17 -12 -4 4 13
16 21 21 21 13z m-3560 -14 c0 -5 -7 -9 -15 -9 -8 0 -12 4 -9 9 3 4 9 8 15 8
5 0 9 -4 9 -8z m1045 -2 c3 -6 -1 -7 -9 -4 -18 7 -21 14 -7 14 6 0 13 -4 16
-10z m2475 6 c0 -3 -4 -8 -10 -11 -5 -3 -10 -1 -10 4 0 6 5 11 10 11 6 0 10
-2 10 -4z m-2702 -31 c-3 -3 -9 2 -12 12 -6 14 -5 15 5 6 7 -7 10 -15 7 -18z
m1579 10 c0 -8 -4 -12 -9 -9 -5 3 -6 10 -3 15 9 13 12 11 12 -6z m1340 0 c0
-8 -4 -15 -9 -15 -10 0 -11 14 -1 23 9 10 10 9 10 -8z m-3941 -7 c3 -4 -1 -5
-10 -4 -8 1 -18 5 -22 8 -3 4 1 5 10 4 8 -1 18 -5 22 -8z m1079 3 c3 -5 2 -12
-3 -15 -5 -3 -9 1 -9 9 0 17 3 19 12 6z m89 1 c3 -5 -1 -9 -9 -9 -8 0 -12 4
-9 9 3 4 7 8 9 8 2 0 6 -4 9 -8z m70 0 c3 -5 -1 -9 -9 -9 -8 0 -12 4 -9 9 3 4
7 8 9 8 2 0 6 -4 9 -8z m2416 2 c0 -8 -19 -13 -24 -6 -3 5 1 9 9 9 8 0 15 -2
15 -3z m227 -9 c0 -8 -4 -12 -9 -9 -5 3 -6 10 -3 15 9 13 12 11 12 -6z m-2560
-27 c2 -17 0 -19 -7 -8 -5 8 -6 18 -4 22 8 12 10 10 11 -14z m1318 13 c3 -5 2
-12 -3 -15 -5 -3 -9 1 -9 9 0 17 3 19 12 6z m45 -3 c0 -4 -4 -8 -9 -8 -6 0
-12 4 -15 8 -3 5 1 9 9 9 8 0 15 -4 15 -9z m-1500 -2 c0 -2 -8 -10 -17 -17
-16 -13 -17 -12 -4 4 13 16 21 21 21 13z m-1006 -22 c3 -8 2 -12 -4 -9 -6 3
-10 10 -10 16 0 14 7 11 14 -7z m897 -7 c-10 -9 -11 -8 -5 6 3 10 9 15 12 12
3 -3 0 -11 -7 -18z m69 19 c0 -3 -4 -8 -10 -11 -5 -3 -10 -1 -10 4 0 6 5 11
10 11 6 0 10 -2 10 -4z m337 -2 c-8 -8 -48 -13 -43 -6 2 4 14 8 26 9 12 1 20
0 17 -3z m1236 -9 c4 -8 3 -16 -1 -19 -4 -3 -9 4 -9 15 -2 23 3 25 10 4z
m-2453 -9 c0 -3 -4 -8 -10 -11 -5 -3 -10 -1 -10 4 0 6 5 11 10 11 6 0 10 -2
10 -4z m-323 -21 c0 -8 -4 -15 -9 -15 -10 0 -11 14 -1 23 9 10 10 9 10 -8z
m180 0 c0 -8 -4 -12 -9 -9 -5 3 -6 10 -3 15 9 13 12 11 12 -6z m1016 0 c-3 -9
-8 -14 -10 -11 -3 3 -2 9 2 15 9 16 15 13 8 -4z m-1243 -1 c0 -8 -19 -13 -24
-6 -3 5 1 9 9 9 8 0 15 -2 15 -3z m204 -10 c3 -8 2 -12 -4 -9 -6 3 -10 10 -10
16 0 14 7 11 14 -7z m81 6 c4 -6 1 -9 -7 -8 -7 2 -12 -5 -11 -16 1 -13 -2 -15
-10 -7 -7 7 -6 15 3 26 15 18 17 18 25 5z m1069 2 c3 -5 -1 -9 -9 -9 -8 0 -12
4 -9 9 3 4 7 8 9 8 2 0 6 -4 9 -8z m2690 -8 c3 -8 2 -12 -4 -9 -6 3 -10 10
-10 16 0 14 7 11 14 -7z m-2621 -29 c-7 -21 -12 -19 -10 4 0 11 5 18 9 15 4
-3 5 -11 1 -19z m361 17 c3 -5 -1 -9 -9 -9 -8 0 -12 4 -9 9 3 4 7 8 9 8 2 0 6
-4 9 -8z m1966 -4 c0 -4 -4 -8 -9 -8 -6 0 -12 4 -15 8 -3 5 1 9 9 9 8 0 15 -4
15 -9z m74 3 c3 -4 -4 -17 -17 -27 -22 -19 -22 -19 -4 2 9 11 14 24 10 27 -3
4 -4 7 0 7 3 0 8 -4 11 -9z m41 -9 c-3 -3 -11 0 -18 7 -9 10 -8 11 6 5 10 -3
15 -9 12 -12z m-1779 -17 c1 -8 -1 -17 -5 -19 -4 -3 -7 6 -7 19 0 25 8 25 12
0z m524 22 c0 -2 -10 -12 -22 -23 l-23 -19 19 23 c18 21 26 27 26 19z m-2410
-12 c0 -2 -6 -8 -13 -14 -10 -8 -14 -7 -14 2 0 8 6 14 14 14 7 0 13 -1 13 -2z
m26 -10 c-1 -8 -5 -17 -8 -21 -5 -4 -4 16 1 34 3 9 9 -1 7 -13z m1104 5 c0 -5
-2 -10 -4 -10 -3 0 -8 5 -11 10 -3 6 -1 10 4 10 6 0 11 -4 11 -10z m515 1 c-9
-8 -36 -10 -30 -2 2 4 11 8 20 8 8 0 13 -3 10 -6z m390 -1 c3 -6 -1 -7 -9 -4
-18 7 -21 14 -7 14 6 0 13 -4 16 -10z m115 1 c0 -6 -4 -12 -8 -15 -5 -3 -9 1
-9 9 0 8 4 15 9 15 4 0 8 -4 8 -9z m-323 -16 c0 -8 -4 -12 -9 -9 -5 3 -6 10
-3 15 9 13 12 11 12 -6z m-1992 -4 c-9 -8 -36 -10 -30 -2 2 4 11 8 20 8 8 0
13 -3 10 -6z m235 5 c0 -2 -7 -7 -16 -10 -8 -3 -12 -2 -9 4 6 10 25 14 25 6z
m-205 -15 c3 -5 2 -12 -3 -15 -5 -3 -9 1 -9 9 0 17 3 19 12 6z m3695 -7 c0 -8
-19 -13 -24 -6 -3 5 1 9 9 9 8 0 15 -2 15 -3z m70 0 c0 -8 -19 -13 -24 -6 -3
5 1 9 9 9 8 0 15 -2 15 -3z m-3800 -26 c0 -4 -4 -8 -9 -8 -6 0 -12 4 -15 8 -3
5 1 9 9 9 8 0 15 -4 15 -9z m3805 2 c-3 -5 -12 -10 -18 -10 -7 0 -6 4 3 10 19
12 23 12 15 0z m32 -5 c0 -8 -4 -12 -9 -9 -5 3 -6 10 -3 15 9 13 12 11 12 -6z
m-72 -15 c10 -11 16 -20 13 -20 -3 0 -13 9 -23 20 -10 11 -16 20 -13 20 3 0
13 -9 23 -20z m-3670 1 c-9 -8 -36 -10 -30 -2 2 4 11 8 20 8 8 0 13 -3 10 -6z
m102 -10 c0 -11 -5 -18 -9 -15 -4 3 -5 11 -1 19 7 21 12 19 10 -4z m38 1 c-3
-3 -11 0 -18 7 -9 10 -8 11 6 5 10 -3 15 -9 12 -12z m3661 6 c3 -4 -1 -5 -10
-4 -8 1 -18 5 -22 8 -3 4 1 5 10 4 8 -1 18 -5 22 -8z m-3621 -7 c3 -5 2 -12
-3 -15 -5 -3 -9 1 -9 9 0 17 3 19 12 6z m-111 -9 c3 -5 -1 -9 -9 -9 -8 0 -15
4 -15 9 0 4 4 8 9 8 6 0 12 -4 15 -8z m-67 -17 c0 -8 -4 -15 -9 -15 -10 0 -11
14 -1 23 9 10 10 9 10 -8z m283 -6 c0 -5 -4 -9 -8 -9 -5 0 -9 7 -9 15 0 8 4
12 9 9 4 -3 8 -9 8 -15z m3340 7 c0 -2 -7 -7 -16 -10 -8 -3 -12 -2 -9 4 6 10
25 14 25 6z m54 -4 c3 -5 -1 -9 -9 -9 -8 0 -12 4 -9 9 3 4 7 8 9 8 2 0 6 -4 9
-8z m-24 -58 c-11 -18 -11 -18 -6 0 4 10 1 26 -6 35 -11 14 -10 14 6 0 15 -14
16 -20 6 -35z m-3355 11 c0 -29 -19 -52 -30 -36 -4 7 -1 10 7 9 7 -2 13 6 14
17 2 41 10 50 9 10z m3321 10 c-1 -8 -5 -17 -8 -21 -5 -4 -4 16 1 34 3 9 9 -1
7 -13z m-3636 -5 c0 -5 -5 -10 -11 -10 -5 0 -7 5 -4 10 3 6 8 10 11 10 2 0 4
-4 4 -10z m136 -2 c3 -4 -1 -5 -10 -4 -8 1 -18 5 -22 8 -3 4 1 5 10 4 8 -1 18
-5 22 -8z m3794 6 c0 -8 -19 -13 -24 -6 -3 5 1 9 9 9 8 0 15 -2 15 -3z m-3558
-45 c2 -2 1 -3 -1 -2 -2 2 -9 -2 -16 -7 -8 -7 -12 -5 -12 4 0 12 22 16 29 5z
m3325 -4 c0 -8 -4 -12 -9 -9 -4 3 -8 9 -8 15 0 5 4 9 8 9 5 0 9 -7 9 -15z
m177 7 c3 -5 -1 -9 -9 -9 -8 0 -12 4 -9 9 3 4 7 8 9 8 2 0 6 -4 9 -8z m60 -8
c3 -8 2 -12 -4 -9 -6 3 -10 10 -10 16 0 14 7 11 14 -7z m-170 -16 c-3 -4 -9
-8 -15 -8 -5 0 -9 4 -9 8 0 5 7 9 15 9 8 0 12 -4 9 -9z m34 0 c-2 -7 5 -12 16
-11 13 1 15 -2 7 -10 -12 -12 -44 9 -35 24 8 13 14 11 12 -3z m-104 -16 c2 -4
-5 -9 -17 -9 -17 -2 -19 0 -7 7 18 12 18 12 24 2z m187 -5 c-6 -8 -7 -18 -3
-22 4 -5 1 -5 -6 -1 -10 6 -10 11 -1 22 6 8 14 14 16 14 3 0 0 -6 -6 -13z
m-3565 -14 c0 -10 5 -17 12 -15 8 1 11 -2 7 -9 -5 -8 -12 -6 -22 4 -9 8 -12
20 -9 26 10 16 14 14 12 -6z m-59 -18 c0 -8 -4 -15 -9 -15 -10 0 -11 14 -1 23
9 10 10 9 10 -8z m-92 -5 c-3 -5 -12 -10 -18 -10 -7 0 -6 4 3 10 19 12 23 12
15 0z m3515 5 c0 -7 -30 -13 -34 -7 -3 4 4 9 15 9 10 1 19 0 19 -2z m-3560
-27 c0 -4 -4 -8 -9 -8 -6 0 -12 4 -15 8 -3 5 1 9 9 9 8 0 15 -4 15 -9z m3684
0 c-3 -4 -9 -8 -15 -8 -5 0 -9 4 -9 8 0 5 7 9 15 9 8 0 12 -4 9 -9z m-3724 -2
c0 -2 -6 -9 -14 -15 -11 -9 -16 -9 -22 0 -4 7 -3 9 4 5 6 -3 13 -2 17 4 6 10
15 14 15 6z m253 -11 c-3 -9 -8 -14 -10 -11 -3 3 -2 9 2 15 9 16 15 13 8 -4z
m3327 -6 c0 -5 -4 -9 -8 -9 -5 0 -9 7 -9 15 0 8 4 12 9 9 4 -3 8 -9 8 -15z
m95 12 c3 -5 2 -12 -3 -15 -5 -3 -9 1 -9 9 0 17 3 19 12 6z m-3511 -9 c3 -5
-1 -9 -9 -9 -8 0 -12 4 -9 9 3 4 7 8 9 8 2 0 6 -4 9 -8z m-114 -38 c0 -8 -19
-13 -24 -6 -3 5 1 9 9 9 8 0 15 -2 15 -3z m183 -39 c-7 -21 -12 -19 -10 4 0
11 5 18 9 15 4 -3 5 -11 1 -19z m47 13 c0 -4 -4 -8 -9 -8 -6 0 -12 4 -15 8 -3
5 1 9 9 9 8 0 15 -4 15 -9z m3285 2 c-3 -5 -12 -10 -18 -10 -7 0 -6 4 3 10 19
12 23 12 15 0z m152 -15 c0 -8 -4 -12 -9 -9 -5 3 -6 10 -3 15 9 13 12 11 12
-6z m-120 -40 c0 -8 -4 -12 -9 -9 -5 3 -6 10 -3 15 9 13 12 11 12 -6z m-3483
-3 c3 -5 -1 -9 -9 -9 -8 0 -12 4 -9 9 3 4 7 8 9 8 2 0 6 -4 9 -8z m306 2 c0
-8 -19 -13 -24 -6 -3 5 1 9 9 9 8 0 15 -2 15 -3z m3131 -11 c12 -16 12 -17 -2
-6 -9 7 -20 9 -24 5 -5 -4 -5 -1 -1 6 9 16 11 15 27 -5z m109 8 c0 -6 -4 -12
-8 -15 -5 -3 -9 1 -9 9 0 8 4 15 9 15 4 0 8 -4 8 -9z m170 3 c0 -8 -19 -13
-24 -6 -3 5 1 9 9 9 8 0 15 -2 15 -3z m-3413 -39 c0 -8 -4 -15 -9 -15 -10 0
-11 14 -1 23 9 10 10 9 10 -8z m3401 -10 c-3 -3 -9 2 -12 12 -6 14 -5 15 5 6
7 -7 10 -15 7 -18z m-3663 6 c3 -5 2 -12 -3 -15 -5 -3 -9 1 -9 9 0 17 3 19 12
6z m105 3 c0 -8 -19 -13 -24 -6 -3 5 1 9 9 9 8 0 15 -2 15 -3z m74 -10 c3 -8
2 -12 -4 -9 -6 3 -10 10 -10 16 0 14 7 11 14 -7z m123 1 c0 -8 -4 -12 -9 -9
-5 3 -6 10 -3 15 9 13 12 11 12 -6z m3077 -1 c3 -8 2 -12 -4 -9 -6 3 -10 10
-10 16 0 14 7 11 14 -7z m102 -10 c1 -9 0 -13 -4 -10 -3 4 -7 14 -8 22 -1 9 0
13 4 10 3 -4 7 -14 8 -22z m40 10 c-1 -8 -6 -17 -12 -21 -5 -4 -6 -4 -2 1 4 5
3 14 -2 21 -7 8 -5 12 4 12 8 0 13 -6 12 -13z m-3551 -14 c3 -6 -1 -7 -9 -4
-18 7 -21 14 -7 14 6 0 13 -4 16 -10z m3480 0 c3 -6 -1 -7 -9 -4 -18 7 -21 14
-7 14 6 0 13 -4 16 -10z m-3352 -15 c-3 -9 -8 -14 -10 -11 -3 3 -2 9 2 15 9
16 15 13 8 -4z m-78 -4 c-9 -8 -36 -10 -30 -2 2 4 11 8 20 8 8 0 13 -3 10 -6z
m102 -6 c0 -8 -4 -12 -9 -9 -5 3 -6 10 -3 15 9 13 12 11 12 -6z m59 3 c4 -7 3
-10 -1 -5 -5 4 -18 -1 -29 -10 -21 -18 -21 -18 -2 5 22 26 23 26 32 10z m114
6 c0 -8 -19 -13 -24 -6 -3 5 1 9 9 9 8 0 15 -2 15 -3z m3084 -2 c3 -5 -1 -9
-9 -9 -8 0 -12 4 -9 9 3 4 7 8 9 8 2 0 6 -4 9 -8z m-3099 -30 c-3 -3 -11 0
-18 7 -9 10 -8 11 6 5 10 -3 15 -9 12 -12z m-262 -7 c-3 -9 -8 -14 -10 -11 -3
3 -2 9 2 15 9 16 15 13 8 -4z m417 1 c0 -2 -8 -10 -17 -17 -16 -13 -17 -12 -4
4 13 16 21 21 21 13z m2950 -2 c0 -8 -19 -13 -24 -6 -3 5 1 9 9 9 8 0 15 -2
15 -3z m129 -8 c9 -11 9 -16 -1 -22 -7 -4 -10 -4 -6 1 4 4 3 14 -3 22 -6 7 -9
13 -6 13 2 0 10 -6 16 -14z m51 -10 c0 -2 -7 -7 -16 -10 -8 -3 -12 -2 -9 4 6
10 25 14 25 6z m-3445 -15 c3 -5 2 -12 -3 -15 -5 -3 -9 1 -9 9 0 17 3 19 12 6z
m16 -24 c-10 -9 -11 -8 -5 6 3 10 9 15 12 12 3 -3 0 -11 -7 -18z m309 17 c0
-8 -19 -13 -24 -6 -3 5 1 9 9 9 8 0 15 -2 15 -3z m5 -24 c-3 -5 -12 -10 -18
-10 -7 0 -6 4 3 10 19 12 23 12 15 0z m-308 -25 c0 -8 -4 -12 -9 -9 -5 3 -6
10 -3 15 9 13 12 11 12 -6z m183 9 c0 -8 -19 -13 -24 -6 -3 5 1 9 9 9 8 0 15
-2 15 -3z m-20 -43 c0 -6 -4 -12 -8 -15 -5 -3 -9 1 -9 9 0 8 4 15 9 15 4 0 8
-4 8 -9z m64 1 c3 -5 -1 -9 -9 -9 -8 0 -12 4 -9 9 3 4 7 8 9 8 2 0 6 -4 9 -8z
m9 -37 c-3 -9 -8 -14 -10 -11 -3 3 -2 9 2 15 9 16 15 13 8 -4z m347 11 c0 -2
-6 -9 -14 -15 -11 -9 -16 -9 -22 0 -4 7 -3 9 4 5 6 -3 13 -2 17 4 6 10 15 14
15 6z m-416 -14 c3 -5 -1 -9 -9 -9 -8 0 -12 4 -9 9 3 4 7 8 9 8 2 0 6 -4 9 -8z
m41 -2 c3 -6 -1 -7 -9 -4 -18 7 -21 14 -7 14 6 0 13 -4 16 -10z m132 -9 c0
-11 -5 -18 -9 -15 -4 3 -5 11 -1 19 7 21 12 19 10 -4z m774 2 c13 -16 12 -17
-3 -4 -10 7 -18 15 -18 17 0 8 8 3 21 -13z m58 3 c9 -11 9 -16 -1 -22 -7 -4
-10 -4 -6 1 4 4 3 14 -3 22 -6 7 -9 13 -6 13 2 0 10 -6 16 -14z m120 0 c9 -11
9 -16 -1 -22 -7 -4 -10 -4 -6 1 4 4 3 14 -3 22 -6 7 -9 13 -6 13 2 0 10 -6 16
-14z m120 0 c9 -11 9 -16 -1 -22 -7 -4 -10 -4 -6 1 4 4 3 14 -3 22 -6 7 -9 13
-6 13 2 0 10 -6 16 -14z m120 0 c9 -11 9 -16 -1 -22 -7 -4 -10 -4 -6 1 4 4 3
14 -3 22 -6 7 -9 13 -6 13 2 0 10 -6 16 -14z m287 -1 c-1 -8 -5 -17 -8 -21 -5
-4 -4 16 1 34 3 9 9 -1 7 -13z m79 -3 c-3 -3 -11 0 -18 7 -9 10 -8 11 6 5 10
-3 15 -9 12 -12z m41 3 c-1 -8 -5 -17 -8 -21 -5 -4 -4 16 1 34 3 9 9 -1 7 -13z
m79 -3 c-3 -3 -11 0 -18 7 -9 10 -8 11 6 5 10 -3 15 -9 12 -12z m41 3 c-1 -8
-5 -17 -8 -21 -5 -4 -4 16 1 34 3 9 9 -1 7 -13z m79 -3 c-3 -3 -11 0 -18 7 -9
10 -8 11 6 5 10 -3 15 -9 12 -12z m41 3 c-1 -8 -5 -17 -8 -21 -5 -4 -4 16 1
34 3 9 9 -1 7 -13z m215 -2 c13 -16 12 -17 -3 -4 -10 7 -18 15 -18 17 0 8 8 3
21 -13z m58 3 c9 -11 9 -16 -1 -22 -7 -4 -10 -4 -6 1 4 4 3 14 -3 22 -6 7 -9
13 -6 13 2 0 10 -6 16 -14z m-1229 -14 c0 -5 -7 -9 -15 -9 -8 0 -12 4 -9 9 3
4 9 8 15 8 5 0 9 -4 9 -8z m120 0 c0 -5 -7 -9 -15 -9 -8 0 -12 4 -9 9 3 4 9 8
15 8 5 0 9 -4 9 -8z m120 0 c0 -5 -7 -9 -15 -9 -8 0 -12 4 -9 9 3 4 9 8 15 8
5 0 9 -4 9 -8z m120 0 c0 -5 -7 -9 -15 -9 -8 0 -12 4 -9 9 3 4 9 8 15 8 5 0 9
-4 9 -8z m280 0 c0 -5 -7 -9 -15 -9 -8 0 -12 4 -9 9 3 4 9 8 15 8 5 0 9 -4 9
-8z m120 0 c0 -5 -7 -9 -15 -9 -8 0 -12 4 -9 9 3 4 9 8 15 8 5 0 9 -4 9 -8z
m120 0 c0 -5 -7 -9 -15 -9 -8 0 -12 4 -9 9 3 4 9 8 15 8 5 0 9 -4 9 -8z m120
0 c0 -5 -7 -9 -15 -9 -8 0 -12 4 -9 9 3 4 9 8 15 8 5 0 9 -4 9 -8z m280 0 c0
-5 -7 -9 -15 -9 -8 0 -12 4 -9 9 3 4 9 8 15 8 5 0 9 -4 9 -8z m-1240 -6 c0 -2
-8 -10 -17 -17 -16 -13 -17 -12 -4 4 13 16 21 21 21 13z m240 0 c0 -2 -8 -10
-17 -17 -16 -13 -17 -12 -4 4 13 16 21 21 21 13z m400 0 c0 -2 -8 -10 -17 -17
-16 -13 -17 -12 -4 4 13 16 21 21 21 13z m240 0 c0 -2 -8 -10 -17 -17 -16 -13
-17 -12 -4 4 13 16 21 21 21 13z m-1030 -12 c0 -8 -19 -13 -24 -6 -3 5 1 9 9
9 8 0 15 -2 15 -3z m590 -8 c-7 -7 -13 -7 -20 0 -6 6 -3 10 10 10 13 0 16 -4
10 -10z m646 2 c3 -4 -1 -5 -10 -4 -8 1 -18 5 -22 8 -3 4 1 5 10 4 8 -1 18 -5
22 -8z m44 6 c0 -8 -19 -13 -24 -6 -3 5 1 9 9 9 8 0 15 -2 15 -3z m155 -4 c3
-6 -1 -7 -9 -4 -18 7 -21 14 -7 14 6 0 13 -4 16 -10z"/>
</g>
</svg>
